<svg xmlns="http://www.w3.org/2000/svg" viewBox="0 0 200 200" id="trading"><path d="M185.27,177.68a2,2,0,0,1-.59,1.31h0L179,184.67a2.08,2.08,0,0,1-3.55-1.48,2.07,2.07,0,0,1,.61-1.47l2.11-2.11-155.32-.39a2.08,2.08,0,0,1-2.08-2.08L20.39,21.82l-2.11,2.11a2.08,2.08,0,1,1-3-2.94L21,15.34l.11-.11a2.13,2.13,0,0,1,1.12-.49,1.7,1.7,0,0,1,.39,0,2.06,2.06,0,0,1,1.33.6L29.62,21A2.08,2.08,0,1,1,26.67,24l-2.11-2.11.38,153.21,153.21.38L176,173.33a2.08,2.08,0,0,1,2.94-3l5.68,5.68.1.1h0a2.08,2.08,0,0,1,.5,1.11h0A1.79,1.79,0,0,1,185.27,177.68ZM33.85,126.9V94.76a2.08,2.08,0,0,1,2.08-2.09h5V65.51a2.09,2.09,0,0,1,4.17,0V92.67H50a2.08,2.08,0,0,1,2.09,2.09V126.9A2.08,2.08,0,0,1,50,129H45.05v27.16a2.09,2.09,0,0,1-4.17,0V129h-5A2.08,2.08,0,0,1,33.85,126.9ZM38,124.82h9.9v-28H38Zm56.11,10.12V102.79a2.08,2.08,0,0,1,2.08-2.08h5V73.55a2.09,2.09,0,0,1,4.17,0v27.16h5a2.08,2.08,0,0,1,2.08,2.08v32.15a2.08,2.08,0,0,1-2.08,2.08h-5v27.16a2.09,2.09,0,0,1-4.17,0V137h-5A2.08,2.08,0,0,1,94.12,134.94Zm4.17-2.09h9.89v-28H98.29ZM64,102.79V70.64a2.08,2.08,0,0,1,2.09-2.08H71V41.4a2.09,2.09,0,0,1,4.17,0V68.56h4.95a2.08,2.08,0,0,1,2.08,2.08v32.15a2.08,2.08,0,0,1-2.08,2.08H75.18V132A2.09,2.09,0,0,1,71,132V104.87H66.07A2.08,2.08,0,0,1,64,102.79Zm4.17-2.08h9.9v-28h-9.9Zm86.24,22.17V90.74a2.1,2.1,0,0,1,2.09-2.09h5V61.5a2.08,2.08,0,1,1,4.16,0V88.65h4.95a2.1,2.1,0,0,1,2.09,2.09v32.14a2.1,2.1,0,0,1-2.09,2.09h-4.95v27.15a2.08,2.08,0,1,1-4.16,0V125h-5A2.1,2.1,0,0,1,154.39,122.88Zm4.17-2.08h9.9v-28h-9.9Zm-34.3-30.06V58.59a2.08,2.08,0,0,1,2.08-2.08h4.95V29.35a2.09,2.09,0,0,1,4.17,0V56.51h4.95a2.08,2.08,0,0,1,2.08,2.08V90.74a2.08,2.08,0,0,1-2.08,2.08h-4.95V120a2.09,2.09,0,0,1-4.17,0V92.82h-4.95A2.08,2.08,0,0,1,124.26,90.74Zm4.16-2.09h9.9v-28h-9.9Z" data-name="ICON 10"></path></svg>